<?xml version="1.0" encoding="UTF-8" standalone="no"?>
<!-- Created with Inkscape (http://www.inkscape.org/) -->

<svg
   xmlns:dc="http://purl.org/dc/elements/1.1/"
   xmlns:cc="http://creativecommons.org/ns#"
   xmlns:rdf="http://www.w3.org/1999/02/22-rdf-syntax-ns#"
   xmlns:svg="http://www.w3.org/2000/svg"
   xmlns="http://www.w3.org/2000/svg"
   xmlns:sodipodi="http://sodipodi.sourceforge.net/DTD/sodipodi-0.dtd"
   xmlns:inkscape="http://www.inkscape.org/namespaces/inkscape"
   width="1476"
   height="696"
   viewBox="0 0 390.52499 184.15001"
   version="1.1"
   id="svg8"
   inkscape:version="0.92.3 (2405546, 2018-03-11)"
   sodipodi:docname="apex.svg">
  <defs
     id="defs2" />
  <sodipodi:namedview
     id="base"
     pagecolor="#ffffff"
     bordercolor="#666666"
     borderopacity="1.0"
     inkscape:pageopacity="0.0"
     inkscape:pageshadow="2"
     inkscape:zoom="0.49497475"
     inkscape:cx="782.03859"
     inkscape:cy="167.44736"
     inkscape:document-units="mm"
     inkscape:current-layer="layer1"
     showgrid="false"
     units="px"
     inkscape:window-width="1920"
     inkscape:window-height="1017"
     inkscape:window-x="-8"
     inkscape:window-y="-8"
     inkscape:window-maximized="1" />
  <metadata
     id="metadata5">
    <rdf:RDF>
      <cc:Work
         rdf:about="">
        <dc:format>image/svg+xml</dc:format>
        <dc:type
           rdf:resource="http://purl.org/dc/dcmitype/StillImage" />
        <dc:title></dc:title>
      </cc:Work>
    </rdf:RDF>
  </metadata>
  <g
     inkscape:label="Layer 1"
     inkscape:groupmode="layer"
     id="layer1"
     transform="translate(0,-112.84998)">
    <path
       style="fill:#010101;stroke-width:0.26458332"
       d="m 241.66128,292.51318 c -6.30018,-2.2954 -11.57002,-4.28859 -11.71075,-4.42933 -1.02159,-1.02158 3.65152,-8.0577 21.64249,-32.58627 3.98291,-5.43023 7.30747,-10.04466 7.38792,-10.25429 0.0804,-0.20963 -1.93852,-4.27968 -4.48657,-9.04456 -7.70684,-14.41182 -11.78784,-22.89237 -11.29943,-23.48087 1.31038,-1.57891 7.42331,-2.19432 17.08466,-1.71998 5.36103,0.26321 6.69924,0.40497 7.15258,0.7577 0.30673,0.23865 1.89579,1.59082 3.53126,3.00482 3.39595,2.93608 5.45759,4.37871 6.57775,4.60274 0.74118,0.14824 0.9075,-0.016 3.58069,-3.5367 1.54188,-2.03069 2.96926,-3.82979 3.17195,-3.99801 0.26964,-0.22378 3.59053,-0.28736 12.37668,-0.23697 l 12.00814,0.0689 0.0713,1.85209 0.0713,1.85208 -2.93987,4.23333 c -6.20519,8.9353 -9.98373,15.65844 -11.07651,19.70839 -0.78177,2.89725 -0.79873,6.32464 -0.0432,8.73432 1.47339,4.6994 6.26494,10.77037 14.73642,18.67136 3.49158,3.25644 3.26739,3.2509 4.54896,0.11244 4.51974,-11.06869 6.18884,-19.69765 5.6043,-28.97338 -0.35259,-5.59499 -1.32385,-10.98805 -3.57312,-19.84063 -2.84515,-11.19763 -3.32214,-12.7355 -4.31803,-13.92173 -3.60124,-4.28947 -11.3593,-5.84998 -34.03775,-6.84658 -25.92911,-1.13945 -122.2407,-0.82953 -163.11562,0.52489 -19.74827,0.65437 -30.780305,1.63679 -32.292132,2.87566 -0.605848,0.49646 -2.488684,6.89625 -5.014256,17.04351 -4.607348,18.51145 -4.415652,28.46752 0.828985,43.05446 1.694,4.71153 4.162332,10.27449 8.322101,18.75579 2.097502,4.27656 3.81364,7.87649 3.81364,7.99983 0,0.12335 -0.688316,0.57172 -1.529591,0.99639 l -1.529587,0.77214 -28.169891,0.32805 c -15.493439,0.18043 -33.5277,0.25917 -40.076137,0.17499 -11.2897019,-0.14514 -11.9918817,-0.18262 -13.5598959,-0.72379 -0.9095052,-0.3139 -1.6536458,-0.7171 -1.6536458,-0.89599 0,-0.56053 58.1781797,-170.88725 58.4689597,-171.17803 0.452781,-0.45278 107.2639,-0.76067 150.15499,-0.43282 20.08188,0.1535 42.46563,0.39192 49.74167,0.52983 36.45217,0.69092 64.78971,1.35372 66.7943,1.5623 2.84538,0.29607 3.03445,0.50422 4.51286,4.9683 0.61863,1.86788 13.55487,39.82926 28.74722,84.35864 17.29293,50.68622 27.59485,81.25051 27.54863,81.73269 -0.0647,0.6754 -0.25297,0.8323 -1.52906,1.27471 -1.31828,0.45703 -2.57556,0.51884 -13.36145,0.6569 -6.54844,0.0838 -24.56522,0.005 -40.03728,-0.1752 l -28.13103,-0.3276 -1.5144,1.06229 c -0.8329,0.58425 -2.24933,1.30987 -3.14759,1.61247 -3.10073,1.04455 -5.64684,0.6646 -10.19145,-1.52086 l -3.11759,-1.49921 -2.23705,-4.23414 c -6.43681,-12.18325 -9.45764,-15.62905 -12.3811,-14.12285 -3.19966,1.64849 -8.25579,7.62868 -16.70924,19.76292 -2.38465,3.42297 -3.29945,4.54098 -3.70416,4.52696 -0.2956,-0.0102 -5.69214,-1.89667 -11.99232,-4.19206 z m 53.97863,-126.41449 c 1.68582,-0.78634 3.54346,-2.54976 4.39221,-4.16941 0.95901,-1.83009 0.99373,-4.90041 0.0786,-6.94634 -0.73139,-1.63508 -2.68692,-3.55694 -4.46037,-4.38361 l -1.25916,-0.58692 h -97.10208 -97.10208 l -1.493004,0.73341 c -1.745707,0.85754 -3.480022,2.63226 -4.279783,4.37949 -0.807736,1.76464 -0.783257,4.70725 0.05478,6.58532 1.007367,2.25755 3.411942,4.20755 5.982597,4.8516 0.43656,0.10937 44.25156,0.18088 97.36666,0.1589 l 96.57291,-0.04 z M 116.03336,294.37033 c -7.19801,-1.77011 -13.83878,-7.97658 -20.48904,-19.14908 -2.828028,-4.75112 -8.362942,-15.84928 -12.170142,-24.4026 -1.489787,-3.34697 -2.810971,-6.19852 -2.935965,-6.33677 -1.247021,-1.37922 2.17134,-22.60703 4.955429,-30.77288 1.474888,-4.32592 3.66699,-7.5382 6.128604,-8.9808 l 1.195869,-0.70083 11.804225,-0.1203 c 19.5997,-0.19974 29.23666,0.81553 36.91148,3.88867 7.57378,3.03269 12.21287,8.71749 13.94939,17.09375 0.49251,2.37571 0.42598,8.2841 -0.1247,11.07384 -1.69243,8.57376 -5.89995,14.49332 -14.72256,20.71316 -1.52797,1.07721 -2.96492,2.115 -3.19322,2.30621 -0.33384,0.27961 -0.47705,1.4731 -0.73157,6.09648 -0.64446,11.70706 -2.05668,18.44955 -4.82846,23.0528 -3.20655,5.32532 -9.433,7.79163 -15.74934,6.23835 z m 9.35492,-65.10797 c 3.04727,-1.38321 1.484,-3.82974 -2.44712,-3.82974 -2.02131,0 -3.3344,0.50314 -3.85584,1.47745 -0.7246,1.35394 1.30751,2.86259 3.85584,2.86259 0.74163,0 1.81689,-0.22422 2.44712,-0.5103 z m 54.57059,61.62819 c -17.0987,-1.58064 -31.23737,-2.8793 -31.41927,-2.88592 -0.22552,-0.008 -0.33073,-0.50436 -0.33073,-1.55974 0,-1.41222 0.21717,-1.99706 2.48083,-6.68073 1.36446,-2.82315 3.10597,-6.68082 3.87002,-8.57259 3.78338,-9.36751 9.64593,-27.51401 14.05148,-43.49391 l 1.12235,-4.07099 -1.19445,-1.08838 c -6.21388,-5.6621 -6.39719,-5.85095 -7.03821,-7.25113 -0.53732,-1.17365 -0.63166,-1.72352 -0.54073,-3.15157 0.0792,-1.24348 0.23902,-1.82409 0.56847,-2.065 0.68761,-0.50279 21.39773,-0.18659 53.48753,0.81664 12.13223,0.37929 13.64058,0.47472 14.94895,0.94583 4.28767,1.54388 5.77968,3.57237 6.00312,8.16164 0.10969,2.25297 0.0586,2.63634 -0.49297,3.69811 -0.33845,0.65152 -0.99181,1.40048 -1.45192,1.66438 -0.88505,0.50761 -1.06987,0.5203 -6.75873,0.46412 -6.46024,-0.0638 -14.99686,0.78988 -19.61609,1.96164 -3.93891,0.99918 -7.05215,2.80688 -7.05215,4.09482 0,1.99029 9.15467,4.01303 25.36135,5.60365 3.68821,0.36198 4.47365,0.75578 5.11421,2.56412 0.51517,1.45435 0.42616,7.66725 -0.14067,9.81924 -0.70453,2.67476 -2.39681,5.45734 -3.15085,5.18087 -0.18086,-0.0663 -2.41243,-0.36756 -4.95905,-0.66944 -5.77746,-0.68487 -15.23174,-0.96662 -17.98622,-0.536 -4.7921,0.74916 -7.53885,3.74788 -5.32621,5.8148 2.14702,2.00562 8.68128,2.29217 21.52709,0.94405 4.94522,-0.51898 7.35382,0.0125 9.01758,1.98974 1.47291,1.75046 1.2697,4.00352 -0.72817,8.0736 -2.27849,4.64174 -9.52206,14.99693 -14.62124,20.90209 -1.58741,1.83831 -1.94803,2.12214 -2.74227,2.1583 -0.50299,0.0229 -14.90436,-1.2516 -32.00305,-2.83224 z"
       id="path61"
       inkscape:connector-curvature="0" />
  </g>
</svg>
